<svg width="20" height="21" viewBox="0 0 20 21" fill="none" xmlns="http://www.w3.org/2000/svg">
<path d="M18.5937 1.09944C17.9493 0.395436 17.0757 0 16.165 0C15.2542 0 14.3806 0.395436 13.7362 1.09944L2.2627 13.6486C1.87251 14.075 1.59832 14.6115 1.47073 15.1984L0.419565 20.0303C0.391104 20.1612 0.393772 20.2979 0.427316 20.4273C0.46086 20.5567 0.524161 20.6746 0.611182 20.7697C0.698204 20.8647 0.806043 20.9338 0.924416 20.9704C1.04279 21.0069 1.16775 21.0097 1.28738 20.9784L5.70419 19.8277C6.2411 19.6883 6.73201 19.3884 7.12206 18.9614L18.5937 6.41436C19.2373 5.70956 19.5989 4.75412 19.5989 3.75795C19.5989 2.76177 19.2373 1.80634 18.5937 1.10154M14.7538 2.2145C14.9391 2.01181 15.1591 1.85103 15.4013 1.74133C15.6434 1.63164 15.9029 1.57518 16.165 1.57518C16.427 1.57518 16.6865 1.63164 16.9287 1.74133C17.1708 1.85103 17.3908 2.01181 17.5761 2.2145C17.7614 2.41719 17.9084 2.65781 18.0087 2.92264C18.109 3.18746 18.1606 3.4713 18.1606 3.75795C18.1606 4.04459 18.109 4.32843 18.0087 4.59326C17.9084 4.85808 17.7614 5.09871 17.5761 5.3014L16.7198 6.23482L13.8975 3.14897L14.7538 2.2145ZM12.88 4.26403L15.7023 7.34883L6.10258 17.8485C5.90098 18.069 5.64755 18.2233 5.37012 18.2958L2.09087 19.1504L2.87132 15.5638C2.93756 15.2593 3.07964 14.9821 3.28123 14.7616L12.88 4.26403Z" fill="#075A8E"/>
</svg>
